# AST/ASF file generated using VICON BodyLanguage
# -----------------------------------------------
:version 1.10
:name VICON
:units
  mass 1.0
  length 0.45
  angle deg
:documentation
   .ast/.asf automatically generated from VICON data using
   VICON BodyBuilder and BodyLanguage model FoxedUp or BRILLIANT.MOD
:root
   order TX TY TZ RX RY RZ
   axis XYZ
   position 0 0 0  
   orientation 0 0 0 
:bonedata
  begin
     id 1 
     name lhipjoint
     direction 0.711131 -0.61297 0.344326 
     length 2.29162 
     axis 0 0 0  XYZ
  end
  begin
     id 2 
     name lfemur
     direction 0.34202 -0.939693 0  
     length 6.71424  
     axis 0 0 20  XYZ
    dof rx ry rz
    limits (-160.0 20.0)
           (-70.0 70.0)
           (-60.0 70.0)
  end
  begin
     id 3 
     name ltibia
     direction 0.34202 -0.939693 0   
     length 6.7087   
     axis 0 0 20   XYZ
    dof rx
    limits (-10.0 170.0)
  end
  begin
     id 4 
     name lfoot
     direction 0.0230374 -0.0632947 0.997729   
     length 1.56743   
     axis -90 7.62852e-016 20   XYZ
    dof rx rz
    limits (-45.0 90.0)
           (-70.0 20.0)
  end
  begin
     id 5 
     name ltoes
     direction 1.53585e-011 -4.21885e-011 1   
     length 0.802914   
     axis -90 7.62852e-016 20   XYZ
    dof rx
    limits (-90.0 20.0)
  end
  begin
     id 6 
     name rhipjoint
     direction -0.733192 -0.592884 0.333043   
     length 2.36925  
     axis 0 0 0  XYZ 
  end
  begin
     id 7 
     name rfemur
     direction -0.34202 -0.939693 0   
     length 6.67027   
     axis 0 0 -20   XYZ
    dof rx ry rz
    limits (-160.0 20.0)
           (-70.0 70.0)
           (-70.0 60.0)
  end
  begin
     id 8 
     name rtibia
     direction -0.34202 -0.939693 0   
     length 6.6862   
     axis 0 0 -20   XYZ
    dof rx
    limits (-10.0 170.0)
 end
 begin
     id 9 
     name rfoot
     direction -0.0949739 -0.260939 0.960672   
     length 1.67698  
     axis -90 -7.62852e-016 -20   XYZ
    dof rx rz
    limits (-45.0 90.0)
           (-20.0 70.0)
  end
  begin
     id 10 
     name rtoes
     direction -1.5353e-011 -4.21868e-011 1   
     length 0.846298   
     axis -90 -7.62852e-016 -20   XYZ
    dof rx
    limits (-90.0 20.0)
  end
  begin
     id 11 
     name lowerback
     direction -0.0206828 0.999785 -0.00109866   
     length 2.04382   
     axis 0 0 0   XYZ
    dof rx ry rz
    limits (-20.0 45.0)
           (-30.0 30.0)
           (-30.0 30.0)
  end
  begin
     id 12 
     name upperback
     direction -0.0105003 0.999727 -0.0208904   
     length 2.04538   
     axis 0 0 0   XYZ
    dof rx ry rz
    limits (-20.0 45.0)
           (-30.0 30.0)
           (-30.0 30.0)
  end
  begin
     id 13 
     name thorax
     direction -0.000416255 0.999808 -0.0196023   
     length 2.0399   
     axis 0 0 0   XYZ
    dof rx ry rz
    limits (-20.0 45.0)
           (-30.0 30.0)
           (-30.0 30.0)
  end
  begin
     id 14 
     name lowerneck
     direction 0.0627861 0.989205 0.13241   
     length 1.46207   
     axis 0 0 0   XYZ
    dof rx ry rz
    limits (-20.0 45.0)
           (-30.0 30.0)
           (-30.0 30.0)
  end
  begin
     id 15 
     name upperneck
     direction 0.00627179 0.994526 0.104303   
     length 1.41419   
     axis 0 0 0   XYZ
    dof rx ry rz
    limits (-20.0 45.0)
           (-30.0 30.0)
           (-30.0 30.0)
  end
  begin
     id 16
     name head
     direction -0.00443838 0.999688 0.0245968  
     length 1.50718  
     axis 0 0 0   XYZ
    dof rx ry rz
    limits (-20.0 45.0)
           (-30.0 30.0)
           (-30.0 30.0)
  end
  begin
     id 17 
     name lclavicle
     direction 0.758742 0.650995 -0.0227258  
     length 2.86888  
     axis 0 0 0   XYZ
    dof ry rz
    limits (-20.0 10.0)
           (0.0 20.0)
  end
  begin
     id 18 
     name lhumerus
     direction 1 -4.48962e-011 1.06664e-027   
     length 4.65776   
     axis -180 -30 -90   XYZ
    dof rx ry rz
    limits (-60.0 90.0)
           (-90.0 90.0)
           (-90.0 90.0)
  end
  begin
     id 19
     name lradius
     direction 1 -4.48968e-011 1.40404e-026   
     length 3.55539   
     axis -180 -30 -90   XYZ
    dof rx
    limits (-10.0 170.0)
  end
  begin
     id 20
     name lwrist
     direction 1 -4.48976e-011 3.32647e-026   
     length 1.77769   
     axis -2.20186e-014 90 90   XYZ
    dof ry
    limits (-180.0 0.0)
 end
  begin
     id 21 
     name lhand
     direction 1 -4.48982e-011 6.65293e-026   
     length 0.707264   
     axis -4.24514e-014 90 90   XYZ
    dof rx rz
    limits (-90.0 90.0)
           (-45.0 45.0)
  end
  begin
     id 22 
     name lfingers
     direction 1 -4.48966e-011 1.33059e-025   
     length 0.570215   
     axis -8.49028e-014 90 90   XYZ
    dof rx
    limits (0.0 90.0)
  end
  begin
     id 23
     name lthumb
     direction 0.707107 -6.3493e-011 0.707107   
     length 0.818718   
     axis -90 45 2.85299e-015   XYZ
    dof rx rz
    limits (-45.0 45.0)
           (-45.0 45.0)
  end
  begin
     id 24 
     name rclavicle
     direction -0.870343 0.482028 -0.100759   
     length 3.2251  
     axis 0 0 0   XYZ 
    dof ry rz
    limits (-10.0 20.0)
           (-20.0 0.0)
  end
  begin
     id 25 
     name rhumerus
     direction -1 -4.48974e-011 -9.45849e-028  
     length 4.71925   
     axis -180 30 90   XYZ
    dof rx ry rz
    limits (-90.0 60.0)
           (-90.0 90.0)
           (-90.0 90.0)
  end
  begin
     id 26 
     name rradius
     direction -1 -4.48965e-011 1.17607e-026   
     length 3.5699   
     axis -180 30 90   XYZ
    dof rx
    limits (-10.0 170.0)
  end
  begin
     id 27 
     name rwrist
     direction -1 -4.48968e-011 3.32647e-026   
     length 1.78495   
     axis -2.20186e-014 -90 -90   XYZ
    dof ry
    limits (-180.0 0.0)
  end
  begin
     id 28
     name rhand
     direction -1 -4.48995e-011 6.65293e-026   
     length 0.507757   
     axis -4.24514e-014 -90 -90   XYZ
    dof rx rz
    limits (-90.0 90.0)
           (-45.0 45.0)
  end
  begin
     id 29
     name rfingers
     direction -1 -4.48864e-011 1.33059e-025   
     length 0.409367   
     axis -8.49028e-014 -90 -90   XYZ
    dof rx
    limits (0.0 90.0)
  end
  begin
     id 30
     name rthumb
     direction -0.707107 -6.3494e-011 0.707107   
     length 0.587771   
     axis -90 -45 -2.85299e-015   XYZ
    dof rx rz
    limits (-45.0 45.0)
           (-45.0 45.0)
  end
:hierarchy
  begin
    root lhipjoint rhipjoint lowerback
    lhipjoint lfemur
    lfemur ltibia
    ltibia lfoot
    lfoot ltoes
    rhipjoint rfemur
    rfemur rtibia
    rtibia rfoot
    rfoot rtoes
    lowerback upperback
    upperback thorax
    thorax lowerneck lclavicle rclavicle
    lowerneck upperneck
    upperneck head
    lclavicle lhumerus
    lhumerus lradius
    lradius lwrist
    lwrist lhand lthumb
    lhand lfingers
    rclavicle rhumerus
    rhumerus rradius
    rradius rwrist
    rwrist rhand rthumb
    rhand rfingers
  end

#!OML:ASF E:\Steps\Project 1\Capture day 1\Session 2\Subject.ASF
:FULLY-SPECIFIED
:DEGREES
48
root -1.17394 19.6487 20.352 -152.187 -1.86912 178.087
lowerback -29.1469 -2.94148 -7.4218
upperback -1.65939 -2.13754 -0.0262187
thorax 13.7307 -1.70819 3.10353
lowerneck -4.4321 -5.0001 1.13117
upperneck 12.1789 -6.72434 1.90115
head 4.88478 -2.99654 0.083345
rclavicle 2.05742e-014 -1.94809e-014
rhumerus -41.3415 -19.0356 -76.2273
rradius 33.8718
rwrist -3.67642
rhand -3.22976 -57.0687
rfingers 7.12502
rthumb 22.4934 -85.7786
lclavicle 2.05742e-014 -1.94809e-014
lhumerus -33.6553 10.7945 77.2797
lradius 22.8006
lwrist -3.92481
lhand -20.6996 -11.4258
lfingers 7.12502
lthumb 5.66435 18.4785
rfemur -25.1562 5.7159 20.1634
rtibia 6.75614
rfoot -17.9174 -2.40596
rtoes -23.8408
lfemur -24.7524 -7.96559 -22.1112
ltibia 8.33126
lfoot -7.92941 -1.2651
ltoes -15.1338
49
root -1.17689 19.6512 20.3501 -152.35 -1.79786 178.121
lowerback -29.0017 -2.90406 -7.37443
upperback -1.61991 -2.10153 -0.0351083
thorax 13.7059 -1.68449 3.08815
lowerneck -4.25037 -4.4981 0.777431
upperneck 11.2937 -6.04954 1.98626
head 4.53418 -2.71665 0.22442
rclavicle -1.83876e-014 -1.55052e-014
rhumerus -41.3551 -18.8039 -76.3346
rradius 33.9289
rwrist -4.0215
rhand -3.02539 -57.4692
rfingers 7.12502
rthumb 22.6896 -86.1553
lclavicle -1.83876e-014 -1.55052e-014
lhumerus -33.6936 10.8039 77.2457
lradius 22.7866
lwrist -3.98579
lhand -20.646 -11.2257
lfingers 7.12502
lthumb 5.71614 18.6772
rfemur -24.9607 5.72224 20.1777
rtibia 6.6904
rfoot -17.8615 -2.30531
rtoes -23.3841
lfemur -24.5582 -7.96822 -22.1153
ltibia 8.31838
lfoot -7.95807 -1.11835
ltoes -15.3587
50
root -1.17814 19.6512 20.3558 -152.283 -1.80535 178.102
lowerback -28.9658 -2.9194 -7.39953
upperback -1.65471 -2.12358 -0.0261309
thorax 13.6526 -1.69583 3.10419
lowerneck -3.93805 -4.28287 0.0707936
upperneck 10.5136 -5.8016 2.93114
head 4.25001 -2.60446 0.68961
rclavicle 3.18055e-015 1.47101e-014
rhumerus -41.2851 -18.5575 -76.4926
rradius 33.9263
rwrist -4.64922
rhand -3.88499 -57.8238
rfingers 7.12502
rthumb 21.8644 -86.6085
lclavicle 3.18055e-015 1.47101e-014
lhumerus -33.7299 10.7339 77.2872
lradius 22.808
lwrist -3.96623
lhand -20.7391 -11.0168
lfingers 7.12502
lthumb 5.62622 18.8885
rfemur -25.089 5.6674 20.1627
rtibia 6.79408
rfoot -17.9682 -2.21672
rtoes -23.2694
lfemur -24.7581 -7.97791 -22.1327
ltibia 8.5511
lfoot -8.05638 -1.12341
ltoes -15.2965
51
root -1.18099 19.6526 20.3609 -152.263 -1.79423 178.101
lowerback -28.8892 -2.92462 -7.41013
upperback -1.67891 -2.13832 -0.00119405
thorax 13.593 -1.70193 3.13428
lowerneck -4.34506 -4.92631 0.873367
upperneck 11.7867 -6.62422 1.9899
head 4.73557 -2.97354 0.170295
rclavicle 1.2921e-015 -2.14687e-014
rhumerus -41.2831 -18.7054 -76.2851
rradius 33.8641
rwrist -3.97256
rhand -2.9228 -57.5899
rfingers 7.12502
rthumb 22.7881 -86.2639
lclavicle 1.2921e-015 -2.14687e-014
lhumerus -33.7463 10.7906 77.3343
lradius 22.7724
lwrist -3.96579
lhand -20.8992 -11.0875
lfingers 7.12502
lthumb 5.47168 18.8219
rfemur -25.185 5.55305 20.1726
rtibia 6.92641
rfoot -18.0802 -2.08723
rtoes -23.6142
lfemur -24.9118 -8.11727 -22.1025
ltibia 8.78008
lfoot -8.23967 -0.991272
ltoes -15.2335
52
root -1.18426 19.654 20.3673 -152.247 -1.80143 178.129
lowerback -28.7982 -2.93663 -7.38031
upperback -1.6989 -2.17495 0.0266303
thorax 13.5337 -1.71508 3.13787
lowerneck -4.63634 -5.66052 1.50558
upperneck 13.562 -7.58922 1.50954
head 4.83563 -3.37465 -0.181831
rclavicle 1.13307e-014 1.51076e-014
rhumerus -41.2955 -18.4565 -76.4565
rradius 34.1312
rwrist -4.53461
rhand -4.24796 -57.501
rfingers 7.12502
rthumb 21.5158 -86.326
lclavicle 1.13307e-014 1.51076e-014
lhumerus -33.7494 11.0332 77.2729
lradius 22.6715
lwrist -4.07742
lhand -20.9064 -11.4878
lfingers 7.12502
lthumb 5.4647 18.4218
rfemur -25.2695 5.46269 20.1896
rtibia 6.98984
rfoot -18.0456 -2.04782
rtoes -23.65
lfemur -25.0456 -8.29094 -22.0189
ltibia 8.92204
lfoot -8.37485 -0.821502
ltoes -15.868
